<?xml version="1.0" encoding="UTF-8"?>
<!DOCTYPE svg PUBLIC "-//W3C//DTD SVG 1.1//EN" "http://www.w3.org/Graphics/SVG/1.1/DTD/svg11.dtd">
<!-- Creator: CorelDRAW X6 -->
<svg xmlns="http://www.w3.org/2000/svg" xml:space="preserve" width="10.4763in" height="6.53984in" version="1.1" shape-rendering="geometricPrecision" text-rendering="geometricPrecision" image-rendering="optimizeQuality" fill-rule="evenodd" clip-rule="evenodd"
viewBox="0 0 8089 5049"
 xmlns:xlink="http://www.w3.org/1999/xlink">
 <g id="Layer_x0020_1">
  <metadata id="CorelCorpID_0Corel-Layer"/>
  <g id="_452044112">
   <path fill="#1EB02E" d="M7661 4623c-7,-23 23,-24 64,-33l173 -40c18,-4 76,-22 88,-12 12,9 7,29 -6,35 -6,3 -36,7 -46,9 -31,6 -61,11 -89,16 -28,5 -166,33 -185,25zm-1510 204l-225 61c-43,12 -69,57 -57,100l0 0c12,43 57,69 100,57l225 -61c30,-8 52,-33 58,-62l470 -128c-15,-21 -18,-54 -17,-73l-472 128c-20,-22 -51,-32 -82,-24zm819 -99l199 -54 84 -23 0 0 94 -26c9,5 3,3 10,12 29,-2 62,-21 96,-22 33,-1 67,15 93,25 193,71 175,58 380,10 57,-13 146,-25 160,-72 19,-63 -62,-312 -95,-362 -37,-56 -101,-24 -175,2 -22,8 -163,59 -171,60 -5,5 -40,21 -48,24 -1,4 -24,24 -30,31 -42,47 -113,153 -145,172 -26,15 -63,19 -94,32l-1 17 -94 25 0 0 -22 6 -245 67c0,31 3,64 4,77zm-1017 205l-4 1c-17,4 -27,22 -22,38l0 0c5,17 22,27 38,22l4 -1c17,-5 27,-22 22,-38l0 0c-5,-17 -22,-27 -38,-22zm2019 -460c-23,14 -56,19 -84,25l-222 52c-22,4 -31,-12 -13,-22 8,-5 71,-21 84,-25l171 -49c27,-7 71,-31 64,20zm-54 -122c17,-5 35,4 28,25 -4,13 -25,15 -37,19l-258 74c-26,7 -43,-5 -21,-19 6,-4 31,-11 40,-15 72,-26 179,-64 248,-85zm-322 45c-4,-22 13,-23 31,-30l215 -87c24,-9 74,-41 73,10 -17,13 -15,11 -37,18l-204 70c-20,7 -61,28 -78,18z"/>
   <path fill="#1EB02E" fill-opacity="0.168627" d="M2628 876c0,0 881,-846 1851,-303 0,0 866,-534 1231,493 0,0 582,454 -9,1068 0,0 -157,98 -546,98l39 659 -83 83 -398 -202 -570 -77 -813 196 -136 42 18 -510 -285 36c0,0 -570,95 -748,-617 0,0 -50,-409 374,-641l74 -323z"/>
   <path fill="#1EB02E" d="M2594 1403c-15,-56 52,-329 68,-378 75,-230 195,-430 381,-582 324,-267 759,-344 1155,-181 57,23 117,52 160,78 35,21 48,31 79,50 129,74 202,189 308,307 -31,-131 -92,-231 -154,-321 87,-93 320,-130 463,-123l213 44c105,35 210,118 287,195 175,177 228,444 279,653l26 -65c8,-33 8,-43 10,-74 46,16 21,-1 57,36 96,99 167,230 192,374 57,318 -75,686 -363,832 -148,75 -379,82 -511,5 -3,-66 5,-133 15,-196 8,-45 10,-50 16,-91 28,-186 96,-308 113,-418 -129,116 -229,334 -279,559 -83,378 -23,443 -25,742 -218,-132 -503,-210 -822,-222 -392,-15 -633,81 -977,193l19 -384c136,-119 142,-89 229,-247 105,-190 1,-129 230,-247 250,-129 444,-282 718,-287 -20,-20 -2,-9 -27,-24 -4,-2 -16,-7 -20,-9 -117,-49 -275,-27 -390,22 -213,91 -714,466 -1082,166l-79 -61c51,256 255,348 516,325 -150,469 -944,446 -1134,-98 -123,-352 168,-703 288,-726l40 154zm-49 -291c-177,74 -319,242 -381,376 -126,269 -84,613 144,833 248,238 459,276 824,198l-7 545c97,-85 437,-192 541,-217 1063,-254 1521,289 1642,323 -56,-119 -69,-570 -76,-724 89,-6 286,107 613,-51l58 -34c538,-362 481,-1190 68,-1477 -108,-75 -98,-63 -151,-205 -63,-170 -203,-326 -298,-397 -125,-93 -264,-156 -475,-170 -273,-18 -362,60 -579,136 -155,-110 -300,-201 -552,-237 -344,-49 -714,72 -973,291 -255,215 -361,483 -399,810z"/>
   <path fill="#1EB02E" fill-rule="nonzero" d="M977 4264c-39,0 -78,-3 -116,-10 -316,-58 -450,-337 -450,-667 0,-572 403,-1301 954,-1301 304,0 413,185 413,389 0,250 -164,528 -335,528l-8 0c-86,-3 -158,-155 -158,-232 0,-28 9,-46 29,-46l6 1c13,22 29,32 46,32 84,0 210,-202 210,-356 0,-79 -34,-146 -124,-164 -12,-3 -25,-4 -38,-4 -208,0 -486,316 -627,684 -59,156 -95,319 -95,467 0,224 82,412 282,472 38,11 78,16 118,16 323,0 696,-336 815,-559 2,-4 7,-5 12,-5 18,0 49,15 49,27l-1 4c-147,335 -566,723 -983,723zm1095 -208c-65,0 -205,-72 -212,-127 -5,-33 -8,-72 -8,-114 0,-180 45,-421 72,-571 38,-208 84,-447 84,-542 0,-19 -2,-32 -5,-39 -15,-22 -22,-39 -22,-51 0,-16 13,-24 34,-24 75,0 248,102 248,221l-2 21c-45,265 -136,513 -169,803 103,-311 262,-418 393,-418 30,0 58,5 83,15 80,28 106,93 106,171 0,141 -87,326 -87,419 0,21 5,37 15,47 8,8 17,11 28,11 83,0 247,-204 302,-323 10,-21 41,-33 68,-33 22,0 41,8 41,23 0,3 -1,6 -3,10 -113,201 -303,484 -478,484 -19,0 -39,-4 -57,-11 -94,-37 -122,-118 -122,-209 0,-131 57,-283 57,-365 0,-29 -8,-50 -27,-56 -8,-3 -16,-4 -23,-4 -150,0 -290,466 -290,603l1 15c5,9 7,18 7,24 0,15 -12,22 -31,22zm1152 -1c-136,0 -260,-59 -310,-209 -14,-42 -21,-88 -21,-135 0,-220 143,-470 382,-498 15,-2 29,-3 43,-3 146,0 225,95 225,200 0,133 -125,283 -401,289l-1 19c0,129 78,193 175,193 76,0 165,-38 240,-113 72,-80 146,-196 172,-258 7,-15 28,-22 48,-22 23,0 46,9 46,22l-2 6c-35,92 -101,197 -177,285 -86,101 -194,191 -330,213 -31,6 -60,9 -90,9zm-55 -473c141,0 207,-72 207,-125 0,-4 0,-8 -1,-12 -6,-25 -27,-40 -55,-40 -54,0 -130,54 -160,177l9 0zm667 1279l-10 0c-175,-8 -234,-180 -234,-421 0,-173 30,-382 68,-591 23,-124 153,-640 153,-824 0,-26 -3,-45 -8,-56 -12,-21 -18,-37 -18,-49 0,-17 12,-25 32,-25 71,0 242,108 242,231l-2 21c-39,254 -144,493 -173,742 13,3 27,4 41,4 124,0 278,-97 396,-343 9,-19 36,-27 62,-27 28,0 55,9 55,23 0,2 0,4 -1,6 -91,237 -329,448 -516,464 33,14 120,36 132,56 61,91 89,207 89,321 0,237 -120,469 -306,469zm57 -195c38,0 97,-124 97,-268 0,-110 -34,-233 -139,-320 -20,124 -29,231 -29,319 0,172 33,269 72,269zm527 195l-10 0c-175,-8 -234,-180 -234,-421 0,-173 30,-382 68,-591 23,-124 153,-640 153,-824 0,-26 -3,-45 -8,-56 -12,-21 -18,-37 -18,-49 0,-17 12,-25 32,-25 71,0 242,108 242,231l-2 21c-39,254 -144,493 -173,742 13,3 27,4 41,4 124,0 278,-97 396,-343 9,-19 36,-27 62,-27 28,0 55,9 55,23 0,2 0,4 -1,6 -91,237 -329,448 -516,464 33,14 120,36 132,56 61,91 89,207 89,321 0,237 -120,469 -306,469zm57 -195c38,0 97,-124 97,-268 0,-110 -34,-233 -139,-320 -20,124 -29,231 -29,319 0,172 33,269 72,269zm1053 -628l-17 -1c-112,-11 -142,-105 -142,-197 0,-28 3,-55 7,-80 -107,196 -224,276 -320,276 -115,0 -199,-115 -199,-282 0,-64 12,-135 40,-211 84,-233 273,-353 446,-353 94,0 184,35 250,108 12,14 17,27 17,39 0,34 -41,60 -75,60 -12,0 -24,-4 -33,-12 -38,-38 -77,-55 -114,-55 -114,0 -220,148 -263,301 -12,43 -18,81 -18,112 0,60 22,97 57,97 59,0 157,-96 264,-332 11,-15 32,-21 57,-21 63,0 150,41 150,73 0,3 -1,6 -2,9 -15,40 -54,156 -54,235 0,32 6,59 25,72 5,5 12,7 19,7 41,0 101,-65 132,-100 68,-79 134,-184 159,-242 8,-15 28,-22 48,-22 23,0 45,9 45,22l-2 6c-38,97 -109,209 -190,299 -72,82 -169,191 -286,191zm400 835c-64,0 -160,-33 -189,-98 -5,-13 -8,-39 -8,-75 0,-275 146,-1148 208,-1462 5,-28 27,-39 56,-39 72,0 185,67 185,119l-1 5c-30,108 -6,27 -34,122 82,-165 202,-243 309,-243 15,0 29,2 43,5 144,29 190,166 190,303 0,88 -20,176 -45,236 63,-22 184,-85 247,-182 12,-19 31,-27 48,-27 24,0 46,15 46,38 0,8 -3,18 -9,28 -164,254 -525,348 -628,396l176 -11c-50,31 -142,87 -235,87l-11 0c-15,-2 -41,-15 -64,-34l-4 0 0 -3c-28,-23 -53,-53 -53,-81 0,-16 7,-30 25,-42 31,-21 98,-42 147,-61 78,-75 135,-199 135,-300 0,-48 -13,-91 -44,-120 -13,-13 -30,-19 -48,-19 -62,0 -148,69 -216,191 -101,181 -199,785 -199,1069 0,73 7,125 22,143 8,10 12,18 12,25 0,19 -25,29 -59,29zm993 0c-64,0 -160,-33 -189,-98 -5,-13 -8,-39 -8,-75 0,-275 146,-1148 208,-1462 5,-28 27,-39 56,-39 72,0 185,67 185,119l-1 5c-30,108 -6,27 -34,122 82,-165 202,-243 309,-243 15,0 29,2 43,5 144,29 190,166 190,303 0,88 -20,176 -45,236 63,-22 184,-85 247,-182 12,-19 31,-27 48,-27 24,0 46,15 46,38 0,8 -3,18 -9,28 -164,254 -525,348 -628,396l176 -11c-50,31 -142,87 -235,87l-11 0c-15,-2 -41,-15 -64,-34l-4 0 0 -3c-28,-23 -53,-53 -53,-81 0,-16 7,-30 25,-42 31,-21 98,-42 147,-61 78,-75 135,-199 135,-300 0,-48 -13,-91 -44,-120 -13,-13 -30,-19 -48,-19 -62,0 -148,69 -216,191 -101,181 -199,785 -199,1069 0,73 7,125 22,143 8,10 12,18 12,25 0,19 -25,29 -59,29z"/>
  </g>
  <path fill="#1EB02E" fill-rule="nonzero" d="M726 2455c-48,13 -107,14 -133,-18 -7,-9 -13,-23 -17,-41 -10,-37 -16,-88 -20,-131 -44,150 -119,228 -202,249 -133,35 -282,-78 -333,-272 -3,-12 -6,-24 -8,-37 -57,-301 66,-721 357,-801l5 -1c177,-46 252,55 280,159 17,65 15,132 8,164 -4,18 -32,41 -78,59 -10,4 -20,7 -29,9 -44,12 -71,5 -74,-7 -2,-7 4,-14 18,-22 32,-18 49,-118 28,-197 -18,-67 -61,-119 -142,-98l-1 0c-151,41 -251,343 -228,632 3,39 9,75 17,108 34,129 107,202 185,182 33,-9 68,-34 100,-79 80,-112 79,-242 83,-284 -7,1 -18,4 -31,7 -64,17 -180,56 -190,80 -3,7 -7,11 -10,12 -9,2 -17,-11 -22,-30 -10,-39 -9,-103 25,-128 8,-6 32,-14 63,-22 70,-18 177,-38 210,-44 53,-8 78,11 88,48 7,25 6,59 3,99 -5,71 4,163 23,236 19,74 49,128 86,118l1 0c6,3 9,6 10,10 4,14 -29,33 -69,44zm337 -213c-74,20 -151,5 -199,-70 -14,-21 -24,-45 -31,-71 -32,-120 11,-277 137,-327 8,-3 15,-6 23,-8 80,-21 137,19 152,77 19,72 -28,172 -177,216l2 11c18,70 70,94 123,80 42,-11 85,-44 115,-96 28,-54 51,-128 57,-165 2,-9 12,-16 23,-19 13,-3 26,-2 28,6l0 4c-6,55 -27,122 -56,181 -33,68 -78,132 -150,164 -16,8 -32,13 -48,18zm-98 -250c77,-20 103,-69 95,-98 -1,-2 -1,-4 -2,-6 -7,-13 -20,-18 -36,-14 -29,8 -63,48 -62,120l5 -1zm434 151l-10 2c-64,11 -104,-62 -132,-166 -26,-100 -40,-228 -51,-338l-4 -51c-52,17 -117,39 -140,45 -19,5 -54,-36 -60,-59 -2,-7 -1,-12 4,-13 2,0 4,0 6,0 16,2 63,-8 121,-23l67 -18c1,-31 -9,-110 -23,-165 -8,-29 -17,-52 -27,-56 -8,-3 -12,-7 -13,-10 -1,-6 6,-11 20,-15 34,-9 105,-7 152,32 4,3 7,11 10,21 9,36 12,107 15,154 40,-12 76,-22 101,-29 13,-3 23,-5 28,-6 22,-4 53,35 58,56 2,6 1,10 -3,11l-3 0c-44,4 -147,26 -224,46 -26,7 -48,13 -65,19 30,-5 107,8 112,28l0 2c2,123 15,266 38,353 13,50 30,82 49,82l6 -1c46,-12 109,-168 116,-224 1,-11 18,-21 32,-25 11,-3 21,-2 22,5 0,1 0,4 0,7 -27,130 -99,308 -202,335z"/>
 </g>
</svg>
